<svg xmlns="http://www.w3.org/2000/svg" viewBox="0 0 228 147"><defs><style>.cls-1{isolation:isolate;}.cls-2{fill:#f3ffe2;}.cls-3{opacity:0.75;mix-blend-mode:multiply;}.cls-4{fill:#971116;}.cls-5{fill:#800f13;}.cls-6{fill:#b63e43;}.cls-7{fill:#dd1920;}.cls-8{font-size:7.85px;fill:#fff;font-family:Noteworthy-Bold, Noteworthy;font-weight:700;letter-spacing:0.36em;}.cls-9{letter-spacing:0.32em;}.cls-10{letter-spacing:0.36em;}.cls-11{letter-spacing:0.34em;}.cls-12{opacity:0.45;mix-blend-mode:soft-light;}.cls-13{fill:#3fa9f5;}</style></defs><title>Artboard 4</title><g class="cls-1"><g id="fg"><rect class="cls-2" width="228" height="147"/><g class="cls-3"><polygon points="89.5 112.5 89.59 112.39 139.41 112.39 139.5 112.5 89.5 112.5"/><polygon points="139.5 49.5 139.41 49.62 89.59 49.62 89.5 49.5 139.5 49.5"/><rect x="89.5" y="49.5" width="50" height="63"/><path d="M88.5,48.5h52v65h-52Zm51,64v-63h-50v63h50"/></g><g class="cls-1"><polygon class="cls-4" points="85.5 112.5 85.59 112.39 135.41 112.39 135.5 112.5 85.5 112.5"/><polygon class="cls-5" points="135.5 49.5 135.41 49.62 85.59 49.62 85.5 49.5 135.5 49.5"/><rect class="cls-6" x="85.5" y="49.5" width="50" height="63"/><path class="cls-7" d="M84.5,48.5h52v65h-52Zm51,64v-63h-50v63h50"/></g><text class="cls-8" transform="translate(88.27 65.11) scale(1.1 1)">S<tspan class="cls-9" x="7.8" y="0">t</tspan><tspan class="cls-10" x="13.23" y="0">or</tspan><tspan class="cls-11" x="26.11" y="0">ie</tspan><tspan x="36.79" y="0">s</tspan></text><g class="cls-12"><path d="M30.5,31.08a2.09,2.09,0,0,1-.2.22A7.48,7.48,0,0,1,25,33.5H21a7.5,7.5,0,0,1,0-15h.28a7,7,0,0,0-.28,2A7.52,7.52,0,0,0,28.44,28,7.36,7.36,0,0,0,30.5,31.08Z"/></g><path class="cls-13" d="M31.5,31.08a2.09,2.09,0,0,1-.2.22A7.48,7.48,0,0,1,26,33.5H22a7.5,7.5,0,0,1,0-15h.28a7,7,0,0,0-.28,2A7.52,7.52,0,0,0,29.44,28,7.36,7.36,0,0,0,31.5,31.08Z"/><path class="cls-13" d="M33.22,28a7.27,7.27,0,0,1-1.72,3.08A7.36,7.36,0,0,1,29.44,28Z"/><g class="cls-12"><path d="M49,25.5A7.51,7.51,0,0,1,41.5,33h-4a7.5,7.5,0,0,1-5-1.92A7.27,7.27,0,0,0,34.22,28h.28A7.51,7.51,0,0,0,42,20.5a7.19,7.19,0,0,0-.44-2.5A7.52,7.52,0,0,1,49,25.5Z"/></g><path class="cls-13" d="M48,25.5A7.51,7.51,0,0,1,40.5,33h-4a7.5,7.5,0,0,1-5-1.92A7.27,7.27,0,0,0,33.22,28h.28A7.51,7.51,0,0,0,41,20.5a7.19,7.19,0,0,0-.44-2.5A7.52,7.52,0,0,1,48,25.5Z"/><path class="cls-13" d="M29,25.5a7.19,7.19,0,0,0,.44,2.5A7.52,7.52,0,0,1,22,20.5a7,7,0,0,1,.28-2H26a7.5,7.5,0,0,1,5,1.92A7.47,7.47,0,0,0,29,25.5Z"/><path class="cls-13" d="M33.5,26a7,7,0,0,1-.28,2H29.44A7.19,7.19,0,0,1,29,25.5a7.47,7.47,0,0,1,2-5.08A7.5,7.5,0,0,1,33.5,26Z"/><path class="cls-13" d="M41,20.5A7.51,7.51,0,0,1,33.5,28h-.28a7,7,0,0,0,.28-2A7.5,7.5,0,0,0,31,20.42a2.08,2.08,0,0,1,.2-.22A7.48,7.48,0,0,1,36.5,18h4.06A7.19,7.19,0,0,1,41,20.5Z"/><g class="cls-12"><path d="M40.56,17H36.5a7.48,7.48,0,0,0-5.3,2.2,2.08,2.08,0,0,0-.2.22,7.5,7.5,0,0,0-5-1.92H22.28a7.38,7.38,0,0,1,1.92-3.3A7.48,7.48,0,0,1,29.5,12h4A7.5,7.5,0,0,1,40.56,17Z"/></g><path class="cls-13" d="M40.56,18H36.5a7.48,7.48,0,0,0-5.3,2.2,2.08,2.08,0,0,0-.2.22,7.5,7.5,0,0,0-5-1.92H22.28a7.38,7.38,0,0,1,1.92-3.3A7.48,7.48,0,0,1,29.5,13h4A7.5,7.5,0,0,1,40.56,18Z"/><g class="cls-12"><path d="M105.5,30.08a2.09,2.09,0,0,1-.2.22,7.48,7.48,0,0,1-5.3,2.2H96a7.5,7.5,0,0,1,0-15h.28a7,7,0,0,0-.28,2,7.52,7.52,0,0,0,7.44,7.5A7.36,7.36,0,0,0,105.5,30.08Z"/></g><path class="cls-13" d="M106.5,30.08a2.09,2.09,0,0,1-.2.22,7.48,7.48,0,0,1-5.3,2.2H97a7.5,7.5,0,0,1,0-15h.28a7,7,0,0,0-.28,2,7.52,7.52,0,0,0,7.44,7.5A7.36,7.36,0,0,0,106.5,30.08Z"/><path class="cls-13" d="M108.22,27a7.27,7.27,0,0,1-1.72,3.08A7.36,7.36,0,0,1,104.44,27Z"/><g class="cls-12"><path d="M124,24.5a7.51,7.51,0,0,1-7.5,7.5h-4a7.5,7.5,0,0,1-5-1.92A7.27,7.27,0,0,0,109.22,27h.28a7.51,7.51,0,0,0,7.5-7.5,7.19,7.19,0,0,0-.44-2.5A7.52,7.52,0,0,1,124,24.5Z"/></g><path class="cls-13" d="M123,24.5a7.51,7.51,0,0,1-7.5,7.5h-4a7.5,7.5,0,0,1-5-1.92A7.27,7.27,0,0,0,108.22,27h.28a7.51,7.51,0,0,0,7.5-7.5,7.19,7.19,0,0,0-.44-2.5A7.52,7.52,0,0,1,123,24.5Z"/><path class="cls-13" d="M104,24.5a7.19,7.19,0,0,0,.44,2.5A7.52,7.52,0,0,1,97,19.5a7,7,0,0,1,.28-2H101a7.5,7.5,0,0,1,5,1.92A7.47,7.47,0,0,0,104,24.5Z"/><path class="cls-13" d="M108.5,25a7,7,0,0,1-.28,2h-3.78a7.19,7.19,0,0,1-.44-2.5,7.47,7.47,0,0,1,2-5.08A7.5,7.5,0,0,1,108.5,25Z"/><path class="cls-13" d="M116,19.5a7.51,7.51,0,0,1-7.5,7.5h-.28a7,7,0,0,0,.28-2,7.5,7.5,0,0,0-2.5-5.58,2.08,2.08,0,0,1,.2-.22,7.48,7.48,0,0,1,5.3-2.2h4.06A7.19,7.19,0,0,1,116,19.5Z"/><g class="cls-12"><path d="M115.56,16H111.5a7.48,7.48,0,0,0-5.3,2.2,2.08,2.08,0,0,0-.2.22,7.5,7.5,0,0,0-5-1.92H97.28a7.38,7.38,0,0,1,1.92-3.3,7.48,7.48,0,0,1,5.3-2.2h4A7.5,7.5,0,0,1,115.56,16Z"/></g><path class="cls-13" d="M115.56,17H111.5a7.48,7.48,0,0,0-5.3,2.2,2.08,2.08,0,0,0-.2.22,7.5,7.5,0,0,0-5-1.92H97.28a7.38,7.38,0,0,1,1.92-3.3,7.48,7.48,0,0,1,5.3-2.2h4A7.5,7.5,0,0,1,115.56,17Z"/><g class="cls-12"><path d="M194.5,30.08a2.09,2.09,0,0,1-.2.22,7.48,7.48,0,0,1-5.3,2.2h-4a7.5,7.5,0,0,1,0-15h.28a7,7,0,0,0-.28,2,7.52,7.52,0,0,0,7.44,7.5A7.36,7.36,0,0,0,194.5,30.08Z"/></g><path class="cls-13" d="M195.5,30.08a2.09,2.09,0,0,1-.2.22,7.48,7.48,0,0,1-5.3,2.2h-4a7.5,7.5,0,0,1,0-15h.28a7,7,0,0,0-.28,2,7.52,7.52,0,0,0,7.44,7.5A7.36,7.36,0,0,0,195.5,30.08Z"/><path class="cls-13" d="M197.22,27a7.27,7.27,0,0,1-1.72,3.08A7.36,7.36,0,0,1,193.44,27Z"/><g class="cls-12"><path d="M213,24.5a7.51,7.51,0,0,1-7.5,7.5h-4a7.5,7.5,0,0,1-5-1.92A7.27,7.27,0,0,0,198.22,27h.28a7.51,7.51,0,0,0,7.5-7.5,7.19,7.19,0,0,0-.44-2.5A7.52,7.52,0,0,1,213,24.5Z"/></g><path class="cls-13" d="M212,24.5a7.51,7.51,0,0,1-7.5,7.5h-4a7.5,7.5,0,0,1-5-1.92A7.27,7.27,0,0,0,197.22,27h.28a7.51,7.51,0,0,0,7.5-7.5,7.19,7.19,0,0,0-.44-2.5A7.52,7.52,0,0,1,212,24.5Z"/><path class="cls-13" d="M193,24.5a7.19,7.19,0,0,0,.44,2.5A7.52,7.52,0,0,1,186,19.5a7,7,0,0,1,.28-2H190a7.5,7.5,0,0,1,5,1.92A7.47,7.47,0,0,0,193,24.5Z"/><path class="cls-13" d="M197.5,25a7,7,0,0,1-.28,2h-3.78a7.19,7.19,0,0,1-.44-2.5,7.47,7.47,0,0,1,2-5.08A7.5,7.5,0,0,1,197.5,25Z"/><path class="cls-13" d="M205,19.5a7.51,7.51,0,0,1-7.5,7.5h-.28a7,7,0,0,0,.28-2,7.5,7.5,0,0,0-2.5-5.58,2.08,2.08,0,0,1,.2-.22,7.48,7.48,0,0,1,5.3-2.2h4.06A7.19,7.19,0,0,1,205,19.5Z"/><g class="cls-12"><path d="M204.56,16H200.5a7.48,7.48,0,0,0-5.3,2.2,2.08,2.08,0,0,0-.2.22,7.5,7.5,0,0,0-5-1.92h-3.72a7.38,7.38,0,0,1,1.92-3.3,7.48,7.48,0,0,1,5.3-2.2h4A7.5,7.5,0,0,1,204.56,16Z"/></g><path class="cls-13" d="M204.56,17H200.5a7.48,7.48,0,0,0-5.3,2.2,2.08,2.08,0,0,0-.2.22,7.5,7.5,0,0,0-5-1.92h-3.72a7.38,7.38,0,0,1,1.92-3.3,7.48,7.48,0,0,1,5.3-2.2h4A7.5,7.5,0,0,1,204.56,17Z"/><g class="cls-12"><path d="M147.95,21a1.7,1.7,0,0,1-.16.18A5.79,5.79,0,0,1,143.6,23h-3.16a6.09,6.09,0,0,1-5.93-6.22,6.36,6.36,0,0,1,1.74-4.4,5.79,5.79,0,0,1,4.19-1.82h.22a6,6,0,0,0-.22,1.66,6.1,6.1,0,0,0,5.89,6.22A6.13,6.13,0,0,0,147.95,21Z"/></g><path class="cls-13" d="M148.95,21a1.7,1.7,0,0,1-.16.18A5.79,5.79,0,0,1,144.6,23h-3.16a6.09,6.09,0,0,1-5.93-6.22,6.36,6.36,0,0,1,1.74-4.4,5.79,5.79,0,0,1,4.19-1.82h.22a6,6,0,0,0-.22,1.66,6.1,6.1,0,0,0,5.89,6.22A6.13,6.13,0,0,0,148.95,21Z"/><path class="cls-13" d="M150.31,18.44A6.12,6.12,0,0,1,148.95,21a6.13,6.13,0,0,1-1.63-2.55Z"/><g class="cls-12"><path d="M163,16.37a6.36,6.36,0,0,1-1.74,4.4,5.79,5.79,0,0,1-4.19,1.82H153.9a5.78,5.78,0,0,1-4-1.59,6.12,6.12,0,0,0,1.36-2.55h.22a5.79,5.79,0,0,0,4.19-1.82,6.36,6.36,0,0,0,1.74-4.4,6.22,6.22,0,0,0-.35-2.07A6.1,6.1,0,0,1,163,16.37Z"/></g><path class="cls-13" d="M162,16.37a6.36,6.36,0,0,1-1.74,4.4,5.79,5.79,0,0,1-4.19,1.82H152.9a5.78,5.78,0,0,1-4-1.59,6.12,6.12,0,0,0,1.36-2.55h.22a5.79,5.79,0,0,0,4.19-1.82,6.36,6.36,0,0,0,1.74-4.4,6.22,6.22,0,0,0-.35-2.07A6.1,6.1,0,0,1,162,16.37Z"/><path class="cls-13" d="M147,16.37a6.22,6.22,0,0,0,.35,2.07,6.1,6.1,0,0,1-5.89-6.22,6,6,0,0,1,.22-1.66h2.94a5.78,5.78,0,0,1,4,1.59A6.36,6.36,0,0,0,147,16.37Z"/><path class="cls-13" d="M150.53,16.78a6,6,0,0,1-.22,1.66h-3a6.22,6.22,0,0,1-.35-2.07,6.36,6.36,0,0,1,1.58-4.21A6.36,6.36,0,0,1,150.53,16.78Z"/><path class="cls-13" d="M156.46,12.22a6.36,6.36,0,0,1-1.74,4.4,5.79,5.79,0,0,1-4.19,1.82h-.22a6,6,0,0,0,.22-1.66,6.36,6.36,0,0,0-2-4.63,1.7,1.7,0,0,1,.16-.18,5.79,5.79,0,0,1,4.19-1.82h3.21A6.22,6.22,0,0,1,156.46,12.22Z"/><g class="cls-12"><path d="M156.11,9.15H152.9A5.79,5.79,0,0,0,148.71,11a1.7,1.7,0,0,0-.16.18,5.78,5.78,0,0,0-4-1.59h-2.94a6.19,6.19,0,0,1,1.52-2.74A5.79,5.79,0,0,1,147.37,5h3.16A6,6,0,0,1,156.11,9.15Z"/></g><path class="cls-13" d="M156.11,10.15H152.9A5.79,5.79,0,0,0,148.71,12a1.7,1.7,0,0,0-.16.18,5.78,5.78,0,0,0-4-1.59h-2.94a6.19,6.19,0,0,1,1.52-2.74A5.79,5.79,0,0,1,147.37,6h3.16A6,6,0,0,1,156.11,10.15Z"/><g class="cls-12"><path d="M67.95,21a1.7,1.7,0,0,1-.16.18A5.79,5.79,0,0,1,63.6,23H60.43a6.09,6.09,0,0,1-5.93-6.22,6.36,6.36,0,0,1,1.74-4.4,5.79,5.79,0,0,1,4.19-1.82h.22a6,6,0,0,0-.22,1.66,6.1,6.1,0,0,0,5.89,6.22A6.13,6.13,0,0,0,67.95,21Z"/></g><path class="cls-13" d="M68.95,21a1.7,1.7,0,0,1-.16.18A5.79,5.79,0,0,1,64.6,23H61.43a6.09,6.09,0,0,1-5.93-6.22,6.36,6.36,0,0,1,1.74-4.4,5.79,5.79,0,0,1,4.19-1.82h.22a6,6,0,0,0-.22,1.66,6.1,6.1,0,0,0,5.89,6.22A6.13,6.13,0,0,0,68.95,21Z"/><path class="cls-13" d="M70.31,18.44A6.12,6.12,0,0,1,68.95,21a6.13,6.13,0,0,1-1.63-2.55Z"/><g class="cls-12"><path d="M83,16.37a6.36,6.36,0,0,1-1.74,4.4,5.79,5.79,0,0,1-4.19,1.82H73.9a5.78,5.78,0,0,1-4-1.59,6.12,6.12,0,0,0,1.36-2.55h.22a5.79,5.79,0,0,0,4.19-1.82,6.36,6.36,0,0,0,1.74-4.4,6.22,6.22,0,0,0-.35-2.07A6.1,6.1,0,0,1,83,16.37Z"/></g><path class="cls-13" d="M82,16.37a6.36,6.36,0,0,1-1.74,4.4,5.79,5.79,0,0,1-4.19,1.82H72.9a5.78,5.78,0,0,1-4-1.59,6.12,6.12,0,0,0,1.36-2.55h.22a5.79,5.79,0,0,0,4.19-1.82,6.36,6.36,0,0,0,1.74-4.4,6.22,6.22,0,0,0-.35-2.07A6.1,6.1,0,0,1,82,16.37Z"/><path class="cls-13" d="M67,16.37a6.22,6.22,0,0,0,.35,2.07,6.1,6.1,0,0,1-5.89-6.22,6,6,0,0,1,.22-1.66H64.6a5.78,5.78,0,0,1,4,1.59A6.36,6.36,0,0,0,67,16.37Z"/><path class="cls-13" d="M70.53,16.78a6,6,0,0,1-.22,1.66h-3A6.22,6.22,0,0,1,67,16.37a6.36,6.36,0,0,1,1.58-4.21A6.36,6.36,0,0,1,70.53,16.78Z"/><path class="cls-13" d="M76.46,12.22a6.36,6.36,0,0,1-1.74,4.4,5.79,5.79,0,0,1-4.19,1.82h-.22a6,6,0,0,0,.22-1.66,6.36,6.36,0,0,0-2-4.63,1.7,1.7,0,0,1,.16-.18,5.79,5.79,0,0,1,4.19-1.82h3.21A6.22,6.22,0,0,1,76.46,12.22Z"/><g class="cls-12"><path d="M76.11,9.15H72.9A5.79,5.79,0,0,0,68.71,11a1.7,1.7,0,0,0-.16.18,5.78,5.78,0,0,0-4-1.59H61.65a6.19,6.19,0,0,1,1.52-2.74A5.79,5.79,0,0,1,67.37,5h3.16A6,6,0,0,1,76.11,9.15Z"/></g><path class="cls-13" d="M76.11,10.15H72.9A5.79,5.79,0,0,0,68.71,12a1.7,1.7,0,0,0-.16.18,5.78,5.78,0,0,0-4-1.59H61.65a6.19,6.19,0,0,1,1.52-2.74A5.79,5.79,0,0,1,67.37,6h3.16A6,6,0,0,1,76.11,10.15Z"/></g></g></svg>